<svg id="Layer_1" data-name="Layer 1" xmlns="http://www.w3.org/2000/svg" xmlns:xlink="http://www.w3.org/1999/xlink" viewBox="0 0 242.72 203.74"><defs><style>.cls-1{fill:none;}.cls-2{clip-path:url(#clip-path);}.cls-3{fill:#231f20;}.cls-4{clip-path:url(#clip-path-2);}</style><clipPath id="clip-path" transform="translate(-279.14 -162)"><rect class="cls-1" x="279.14" y="162" width="242.72" height="203.74"/></clipPath><clipPath id="clip-path-2" transform="translate(-279.14 -162)"><rect class="cls-1" x="279.14" y="162" width="242.73" height="203.74"/></clipPath></defs><title>aLineLogo</title><g class="cls-2"><path class="cls-3" d="M521.52,364c-6.81,0-17.14-3.7-22.56-8.63-2.6-2.36-5.15-6.15-7.34-10L394.85,162l-22.18,54,32.16,60.46h-6.66v.82h2.89l-.06,24.6-12.8-25.4-13.85,0v.82h2.89v25.94h-2.89v.83h7.07v-.83H378.5V278.47l12.92,25.62h10.9V277.32h2.95l8.23,15.47V277.32h-2.89v-.82h28v10.36h-1q0-4.62-2.25-6.95-2.49-2.6-7.84-2.59h-4.94v12.57h2.67c2.07,0,3.57-.43,4.49-1.31a3.16,3.16,0,0,0,.78-1.21,3.76,3.76,0,0,0,.2-1.22h1v8.3h-1a3.17,3.17,0,0,0-1-2.44c-.91-.88-2.4-1.31-4.44-1.31h-2.67v12.56h4.94q5.36,0,7.84-2.58,2.25-2.32,2.25-6.95h1v10.36H419.51l17.82,33.48c3.32,6.19,6.66,14.53,4.5,20.1A8.06,8.06,0,0,1,436,362.8a62.56,62.56,0,0,1-7.76,1.17l.39,1.77h93.24Z" transform="translate(-279.14 -162)"/></g><g class="cls-4"><path class="cls-3" d="M326.72,356.59c-6.14-8.93-2.43-22.33.76-31.56l-4.21,7.61a78.38,78.38,0,0,1-8.15,11.62,67.78,67.78,0,0,1-10.44,10,53,53,0,0,1-12.09,7A33.87,33.87,0,0,1,279.52,364l-.38,1.76h63l.38-1.76c-6.81,0-12.44-2.46-15.84-7.39" transform="translate(-279.14 -162)"/><path class="cls-3" d="M348.43,300.68c-1.65,1.72-4.27,2.59-7.84,2.59h-4.93V277.32h2.89v-.82H323.73v.82h2.88v25.95h-2.88v.82h28V293.73h-1q0,4.62-2.25,6.95" transform="translate(-279.14 -162)"/><polygon class="cls-3" points="74.99 115.32 77.88 115.32 77.88 141.27 74.99 141.27 74.99 142.09 89.81 142.09 89.81 141.27 86.92 141.27 86.92 115.32 89.81 115.32 89.81 114.5 74.99 114.5 74.99 115.32"/></g></svg>